#!OML:ASF F:\VICON\USERDATA\INSTALL\Justin_Nancy\Justin_Nancy.ASF
:FULLY-SPECIFIED
:DEGREES
357
root 0.531155 16.8764 11.5652 1.28988 -6.8796 -3.6193
lowerback 18.7555 0.264687 -0.155199
upperback 5.02069 0.481767 2.99218
thorax -5.11729 0.225206 3.17391
lowerneck -12.4211 -1.92097 -10.1949
upperneck 21.9483 -1.80611 5.89265
head 9.07578 -1.07133 3.53221
rclavicle -8.94531e-015 2.50469e-014
rhumerus -72.852 -16.2408 -41.9457
rradius 23.2723
rwrist 5.06226
rhand -19.5646 14.0307
rfingers 7.12502
rthumb 6.76012 -15.8414
lclavicle -8.94531e-015 2.50469e-014
lhumerus -65.5455 15.1792 50.2718
lradius 42.5685
lwrist 14.6433
lhand -23.846 24.717
lfingers 7.12502
lthumb 2.62607 54.6806
rfemur -38.9352 -2.6064 24.5146
rtibia 35.0606
rfoot 19.1979 8.62607
rtoes 34.425
lfemur -38.431 1.95447 -12.8528
ltibia 42.4366
lfoot 3.50425 -1.82784
ltoes -8.63846
358
root 0.532316 16.5327 11.8226 0.627053 -6.72716 -3.54866
lowerback 19.7196 0.32856 -0.179723
upperback 4.57231 0.588647 3.00064
thorax -6.11553 0.290209 3.18424
lowerneck -12.7389 -2.10572 -10.5512
upperneck 21.9385 -2.07441 6.428
head 9.16363 -1.1655 3.74931
rclavicle 0 -2.46493e-014
rhumerus -73.3967 -16.0439 -42.1466
rradius 23.2525
rwrist 4.46693
rhand -20.2514 12.9685
rfingers 7.12502
rthumb 6.09712 -16.9237
lclavicle 0 -2.46493e-014
lhumerus -65.0095 14.4743 50.8847
lradius 42.843
lwrist 14.8397
lhand -24.3816 24.1605
lfingers 7.12502
lthumb 2.10886 54.1298
rfemur -39.6472 -3.47837 25.0769
rtibia 40.0399
rfoot 6.6121 10.0843
rtoes 16.9426
lfemur -39.6183 2.96819 -13.5494
ltibia 47.7125
lfoot -1.50284 -1.42322
ltoes -7.99296
359
root 0.537069 16.2168 12.0629 0.104018 -6.52441 -3.28458
lowerback 20.3648 0.329142 -0.312808
upperback 4.21896 0.578756 2.96087
thorax -6.84005 0.297428 3.22965
lowerneck -12.9833 -2.27747 -10.967
upperneck 21.5739 -2.28686 6.88131
head 9.11282 -1.24137 3.94613
rclavicle -8.64713e-015 2.06736e-014
rhumerus -73.6105 -16.273 -41.926
rradius 22.9203
rwrist 4.72175
rhand -20.6295 13.1196
rfingers 7.12502
rthumb 5.7321 -16.7828
lclavicle -8.64713e-015 2.06736e-014
lhumerus -64.1851 14.4241 51.4106
lradius 42.713
lwrist 14.7178
lhand -24.6356 23.0749
lfingers 7.12502
lthumb 1.86351 53.0465
rfemur -40.9985 -3.68614 25.0952
rtibia 45.4517
rfoot 2.81692 6.75409
rtoes 19.3844
lfemur -41.079 3.32797 -14.1406
ltibia 52.8424
lfoot -5.91087 -0.990116
ltoes -6.45674
360
root 0.542991 15.9248 12.2925 -0.16349 -6.3729 -2.83993
lowerback 20.4931 0.343344 -0.525397
upperback 4.04281 0.54613 2.79439
thorax -7.09772 0.289213 3.18228
lowerneck -13.0232 -2.40113 -10.9763
upperneck 20.5362 -2.42929 6.93187
head 8.77905 -1.28515 3.92528
rclavicle -3.18055e-015 2.82274e-014
rhumerus -73.3526 -17.49 -41.1133
rradius 22.0395
rwrist 6.25905
rhand -20.9518 12.868
rfingers 7.12502
rthumb 5.42091 -17.0427
lclavicle -3.18055e-015 2.82274e-014
lhumerus -62.4109 14.9163 51.8936
lradius 41.6902
lwrist 14.3836
lhand -25.2778 24.1549
lfingers 7.12502
lthumb 1.24325 54.1311
rfemur -42.9664 -3.20749 24.6434
rtibia 50.7284
rfoot -1.14988 5.81042
rtoes 20.2043
lfemur -42.8761 3.36645 -14.7452
ltibia 57.4624
lfoot -9.21376 -0.618538
ltoes -6.8554
361
root 0.529838 15.6637 12.5208 -0.112361 -6.4764 -2.33647
lowerback 20.2323 0.525662 -1.06124
upperback 3.95445 0.661228 2.65471
thorax -7.06573 0.355686 3.30655
lowerneck -13.0064 -2.40671 -10.7198
upperneck 19.0606 -2.39046 6.67222
head 8.26776 -1.2496 3.76667
rclavicle -1.0635e-014 1.51076e-014
rhumerus -72.6034 -19.2712 -40.0365
rradius 20.8376
rwrist 7.91704
rhand -20.2096 13.4114
rfingers 7.12502
rthumb 6.13749 -16.4797
lclavicle -1.0635e-014 1.51076e-014
lhumerus -59.7687 15.9789 52.4438
lradius 39.9626
lwrist 13.6552
lhand -25.4247 26.3301
lfingers 7.12502
lthumb 1.10134 56.307
rfemur -45.0967 -1.99714 24.0127
rtibia 55.3756
rfoot -4.27249 3.6644
rtoes 16.671
lfemur -44.617 3.4763 -15.2688
ltibia 61.5325
lfoot -11.9784 0.0321497
ltoes -5.26978
362
root 0.500228 15.4329 12.7541 0.10706 -6.60053 -2.18155
lowerback 19.9721 0.750302 -1.47747
upperback 3.80934 0.874122 2.68349
thorax -7.1049 0.470352 3.52143
lowerneck -13.2493 -2.43996 -10.4952
upperneck 18.0466 -2.3698 6.39554
head 7.9664 -1.23086 3.61851
rclavicle 8.05078e-015 2.26615e-014
rhumerus -71.2203 -20.5966 -40.4347
rradius 19.8279
rwrist 8.59205
rhand -19.175 13.5341
rfingers 7.12502
rthumb 7.1362 -16.3256
lclavicle 8.05078e-015 2.26615e-014
lhumerus -56.8608 17.3389 53.1876
lradius 38.11
lwrist 12.4816
lhand -25.1246 27.1533
lfingers 7.12502
lthumb 1.39126 57.1285
rfemur -46.8417 -0.65964 23.8108
rtibia 59.2921
rfoot -6.65309 1.01597
rtoes 13.1678
lfemur -45.8372 3.7251 -15.3766
ltibia 64.9965
lfoot -15.0389 0.51854
ltoes -3.95797
363
root 0.478737 15.2244 12.9787 0.376677 -6.64191 -2.57627
lowerback 20.0316 0.781227 -1.35983
upperback 3.47995 0.961943 2.87329
thorax -7.50347 0.522037 3.64085
lowerneck -13.6933 -2.43019 -10.4145
upperneck 17.8234 -2.29382 6.26783
head 7.96296 -1.19148 3.56574
rclavicle -4.96962e-015 2.90226e-014
rhumerus -68.9719 -21.2797 -42.3328
rradius 18.9127
rwrist 9.77994
rhand -18.4712 11.4239
rfingers 7.12502
rthumb 7.81561 -18.4116
lclavicle -4.96962e-015 2.90226e-014
lhumerus -54.4923 19.3124 53.5796
lradius 36.2765
lwrist 10.8447
lhand -25.0086 27.0464
lfingers 7.12502
lthumb 1.50329 57.0209
rfemur -48.1685 0.236852 24.3482
rtibia 62.6699
rfoot -8.72785 -0.899475
rtoes 12.5847
lfemur -46.7726 3.99657 -14.9741
ltibia 67.8981
lfoot -17.5758 1.33377
ltoes -5.33522
364
root 0.473724 15.0808 13.1893 0.380118 -6.49802 -2.93547
lowerback 20.1677 0.691027 -1.00193
upperback 3.24443 0.934332 2.97224
thorax -7.82809 0.50802 3.55343
lowerneck -14.0125 -2.51896 -10.2937
upperneck 17.7665 -2.40564 6.2579
head 8.00953 -1.23179 3.52846
rclavicle 1.19271e-015 2.54444e-014
rhumerus -66.6015 -22.3067 -43.8904
rradius 18.1161
rwrist 11.7255
rhand -16.6601 11.1727
rfingers 7.12502
rthumb 9.5633 -18.5902
lclavicle 1.19271e-015 2.54444e-014
lhumerus -52.4346 21.5462 53.991
lradius 34.822
lwrist 9.06574
lhand -25.1561 27.9655
lfingers 7.12502
lthumb 1.36078 57.9409
rfemur -48.9996 0.832229 24.6414
rtibia 65.4658
rfoot -10.4518 -2.11692
rtoes 11.9389
lfemur -47.1921 3.97673 -14.7135
ltibia 70.1804
lfoot -19.317 2.31873
ltoes -5.86502
365
root 0.476125 15.0027 13.4008 0.189429 -5.83742 -2.89356
lowerback 20.08 0.454598 -0.895989
upperback 3.09572 0.657562 3.03723
thorax -7.92354 0.37667 3.63812
lowerneck -14.201 -2.60129 -10.2589
upperneck 17.7072 -2.51308 6.29537
head 8.03309 -1.27314 3.52204
rclavicle 1.40143e-014 3.22031e-014
rhumerus -64.4009 -23.1747 -45.3013
rradius 17.7954
rwrist 13.9478
rhand -14.2983 15.2746
rfingers 7.12502
rthumb 11.8415 -14.3706
lclavicle 1.40143e-014 3.22031e-014
lhumerus -51.0265 23.256 55.3253
lradius 34.7378
lwrist 8.48848
lhand -25.9094 29.3616
lfingers 7.12502
lthumb 0.633275 59.3404
rfemur -49.3092 0.926686 24.2832
rtibia 67.6664
rfoot -11.9291 -2.86972
rtoes 12.3975
lfemur -47.2689 3.5251 -14.9794
ltibia 71.9401
lfoot -20.6783 2.68231
ltoes -5.38481
366
root 0.483438 14.9304 13.611 -0.0608428 -5.01655 -2.68169
lowerback 20.0974 0.152246 -1.00839
upperback 2.93906 0.246351 3.07992
thorax -8.07541 0.187751 3.86168
lowerneck -14.5322 -2.55497 -9.92576
upperneck 17.7061 -2.45901 6.13278
head 8.08036 -1.23602 3.41696
rclavicle 2.28602e-014 -1.35174e-014
rhumerus -60.2341 -19.3714 -55.026
rradius 20.914
rwrist 12.0386
rhand -16.6243 5.00133
rfingers 7.12502
rthumb 9.59788 -24.76
lclavicle 2.28602e-014 -1.35174e-014
lhumerus -49.7002 24.2814 57.3925
lradius 35.1651
lwrist 9.7573
lhand -27.1817 28.4108
lfingers 7.12502
lthumb -0.595553 58.3897
rfemur -49.1728 0.659653 23.7973
rtibia 69.4614
rfoot -13.4379 -3.62535
rtoes 11.3191
lfemur -47.1189 2.95351 -15.4354
ltibia 73.4288
lfoot -21.873 3.06836
ltoes -6.00818
367
root 0.494246 14.8706 13.8129 -0.393158 -4.3323 -2.73657
lowerback 20.3819 -0.169272 -0.887858
upperback 2.8058 -0.134076 3.17974
thorax -8.34658 0.00940984 4.01261
lowerneck -15.0097 -2.52387 -9.59272
upperneck 17.6741 -2.42982 6.05291
head 8.14651 -1.20031 3.33663
rclavicle -7.15625e-015 9.14409e-015
rhumerus -57.6405 -17.0906 -60.2417
rradius 24.1238
rwrist 9.75346
rhand -15.5532 4.63748
rfingers 7.12502
rthumb 10.6311 -25.0736
lclavicle -7.15625e-015 9.14409e-015
lhumerus -47.8851 24.7208 59.9479
lradius 35.0423
lwrist 12.0618
lhand -27.7109 25.3304
lfingers 7.12502
lthumb -1.10672 55.3073
rfemur -48.6814 0.295474 23.7052
rtibia 70.8498
rfoot -14.7776 -4.40554
rtoes 10.3803
lfemur -46.5422 2.39359 -15.5243
ltibia 74.5564
lfoot -23.0752 3.61601
ltoes -6.52992
